M48
;Layer_Color=9474304
;FILE_FORMAT=4:4
METRIC,TZ
;TYPE=PLATED
T1F00S00C0.4000
T2F00S00C0.9000
T3F00S00C1.5000
T4F00S00C3.3000
%
T01
X312000Y154000
X342000
X372000
Y184000
Y214000
X342000
X312000
Y244000
Y274000
Y304000
X342000
Y274000
X372000Y304000
Y334000
X342000
X312000
X377000Y359000
X407000
X402000Y334000
Y304000
Y274000
Y244000
Y214000
Y184000
Y154000
X432000
X462000
X492000
X522000
X552000
X582000
X612000
X642000
X672000
X702000
X732000
X762000
X792000
Y184000
X762000
X732000
X702000
Y214000
X732000
X762000
X792000
Y244000
X762000
X732000
X702000
X672000
Y214000
Y184000
X642000
X612000
X582000
Y214000
X612000
X642000
Y244000
Y274000
Y304000
X612000
X582000
X583000Y327000
X615800Y334800
X618800Y354800
X615000Y366700
X602200Y354000
X588000Y369000
Y380000
X577000
Y369000
X642000Y350000
Y334000
X672000
Y350000
X702000
Y334000
X732000
Y350000
X762000
Y334000
X792000
Y304000
Y274000
X762000
X732000
X702000
Y304000
X732000
X762000
X672000
Y274000
X613000Y251000
X582000Y274000
X522000
Y304000
X552000
X538000Y251000
X552000Y214000
Y184000
X522000
X492000
X462000
Y214000
X492000
X522000
X492000Y244000
X462000
X432000
Y214000
Y184000
Y334000
X462000
X467000Y359000
X487100Y350000
X437000Y359000
X822000Y334000
X852000
Y304000
Y274000
X822000
Y304000
Y244000
Y214000
X852000
Y244000
Y154000
X822000
Y424000
X852000
Y454000
X822000
Y484000
X852000
Y514000
X822000
Y544000
X852000
Y574000
X822000
Y604000
X852000
Y634000
X822000
Y664000
X852000
X822000Y694000
Y724000
X792000
Y694000
Y664000
X762000
X732000
X702000
Y694000
X732000
X762000
Y724000
X732000
X702000
X672000
Y694000
Y664000
X649000Y664000
X642000Y694000
Y724000
X612000
X582000
X552000
X522000
Y694000
X542000Y694000
X572000
X580000Y662000
X562000Y664000
Y644000
X572000Y624000
X522000Y654000
X492000Y664000
X462000
Y694000
X492000
Y724000
X462000
X432000
Y694000
Y664000
Y634000
Y604000
Y577000
X462000Y574000
Y604000
Y634000
X402000
Y604000
Y574000
Y544000
Y514000
Y484000
Y454000
Y424000
X402000Y398000
X432000
Y424000
Y454000
X452000Y454000
X462000Y424000
X462000Y398000
X492000Y399000
Y424000
X522000
Y398000
X552000Y424000
X560000Y454000
X573000
X566000Y464000
X558000Y473000
X543800Y467900
X544200Y456900
X522000Y454000
X492000
Y484000
Y514000
X432000
Y484000
X534500Y480300
X552200Y489200
X551500Y501600
X551700Y511100
X552400Y525700
X582000Y544000
X617700
X623000Y534000
X612000
Y554000
X623000
X642000Y544000
Y514000
X628900Y510800
X642000Y484000
X641600Y448200
X643000Y431000
X621300Y442500
X611400Y445400
X611300Y433000
X592000Y425000
Y459000
Y489000
X683000Y494000
X702000Y484000
Y454000
X685000Y450000
X672000Y424000
Y398000
X642000Y397000
X702000Y400000
X702000Y424000
X732000
Y397000
X762000
Y424000
X792000
Y454000
X762000
X732000
Y484000
X762000
X792000
Y514000
X762000
X732000
X702000
Y544000
X732000
X762000
X792000
Y574000
X762000
X732000
X702000
Y604000
X732000
X762000
X792000
Y634000
X762000
X732000
X702000
X672000Y544000
Y514000
X402000Y664000
Y694000
Y724000
X372000
Y694000
Y664000
X342000
Y694000
Y724000
X304000Y725000
X312000Y664000
Y634000
Y604000
Y574000
Y544000
Y514000
Y484000
Y454000
Y424000
X342000
X372000
Y454000
X342000
Y484000
X372000
Y514000
X342000
X372000Y544000
Y574000
Y604000
X342000
Y634000
X372000
T02
X346600Y233600
Y259000
X372000
Y233600
X684000Y288000
X709400
X734800
X760200
X659800Y679000
X634400
X609000
X583600
X558200
X532800
X507400
X482000
Y704400
X507400
X532800
X558200
X583600
X609000
X634400
X659800
X343000Y565000
Y539600
T03
X307000Y354000
X357000
X332000Y379000
X806000Y353000
X856000
X831000Y378000
X806000Y403000
X856000
X357000Y404000
X307000
T04
X320100Y182100
X843900
Y705900
X320100
M30
