G04 Kicad Test File*
%FSLAX46Y46*%
%MOMM*%
%ADD10C,0.350000*%
%ADD11R,2.032000X2.032000*%
%ADD12O,2.032000X2.032000*%
%ADD13C,0.600000*%
%ADD14C,6.400000*%
%ADD15C,2.400000*%
%ADD16C,2.300000*%
%ADD17R,1.250000X1.000000*%
%ADD18R,0.900000X1.700000*%
%ADD19R,1.828800X1.016000*%
%ADD20R,1.016000X1.828800*%
%ADD21C,0.714000*%
%ADD22C,0.254000*%
%ADD23C,0.300000*%
G01*
D10*
D11*
X114920000Y-111223000D03*
D12*
X114920000Y-113763000D03*
D13*
X140000000Y-115000000D03*
X135000000Y-115000000D03*
X130000000Y-115000000D03*
X125000000Y-115000000D03*
X120000000Y-115000000D03*
X110000000Y-115000000D03*
X105000000Y-115000000D03*
X100000000Y-115000000D03*
X145000000Y-110000000D03*
X140000000Y-110000000D03*
X135000000Y-110000000D03*
X130000000Y-110000000D03*
X125000000Y-110000000D03*
X120000000Y-110000000D03*
X110000000Y-110000000D03*
X105000000Y-110000000D03*
X100000000Y-110000000D03*
X95000000Y-110000000D03*
X130000000Y-105000000D03*
X120000000Y-105000000D03*
X110000000Y-105000000D03*
X145000000Y-100000000D03*
X140000000Y-100000000D03*
X135000000Y-100000000D03*
X130000000Y-100000000D03*
X125000000Y-100000000D03*
X120000000Y-100000000D03*
X110000000Y-100000000D03*
X105000000Y-100000000D03*
X100000000Y-100000000D03*
X95000000Y-100000000D03*
X140000000Y-95000000D03*
X135000000Y-95000000D03*
X130000000Y-95000000D03*
X125000000Y-95000000D03*
X120000000Y-95000000D03*
X115000000Y-95000000D03*
X110000000Y-95000000D03*
X105000000Y-95000000D03*
X100000000Y-95000000D03*
X135240000Y-105889000D03*
X137399000Y-105889000D03*
X137399000Y-104111000D03*
X135240000Y-104111000D03*
X127620000Y-103857000D03*
X130160000Y-103857000D03*
X132700000Y-106016000D03*
X132700000Y-101952000D03*
X130160000Y-102079000D03*
X127620000Y-102079000D03*
X125080000Y-102079000D03*
X125080000Y-103857000D03*
X122540000Y-103857000D03*
X120000000Y-103857000D03*
X122540000Y-102079000D03*
X120000000Y-102079000D03*
X117460000Y-103857000D03*
X117460000Y-102079000D03*
X109840000Y-103857000D03*
X109840000Y-102079000D03*
X108316000Y-103984000D03*
X107300000Y-101825000D03*
X106284000Y-103984000D03*
X107300000Y-106016000D03*
X104760000Y-105889000D03*
X104760000Y-104111000D03*
X112634000Y-106524000D03*
X112634000Y-105000000D03*
X115428000Y-105000000D03*
X115428000Y-106524000D03*
X114031000Y-106524000D03*
X115428000Y-99412000D03*
X115428000Y-100936000D03*
X112634000Y-100936000D03*
X112634000Y-99412000D03*
X114031000Y-99412000D03*
X102220000Y-104111000D03*
X102220000Y-105889000D03*
D14*
X93810000Y-93810000D03*
X93810000Y-116190000D03*
X146190000Y-116190000D03*
X146190000Y-93810000D03*
D15*
X139050000Y-102460000D03*
X144130000Y-102460000D03*
X139050000Y-107540000D03*
X144130000Y-107540000D03*
D16*
X141590000Y-105000000D03*
D15*
X95898000Y-102446000D03*
X100978000Y-102446000D03*
X95898000Y-107526000D03*
X100978000Y-107526000D03*
D16*
X98438000Y-104986000D03*
D17*
X107300000Y-102984000D03*
X107300000Y-104984000D03*
X132700000Y-104984000D03*
X132700000Y-102984000D03*
X120762000Y-111239000D03*
X120762000Y-113239000D03*
D10*
G36*
X123556000Y-103173133D02*
X124454025Y-102275108D01*
X124992840Y-102813923D01*
X124094815Y-103711948D01*
X123556000Y-103173133D01*
X123556000Y-103173133D01*
G37*
G36*
X120323108Y-106406025D02*
X121221133Y-105508000D01*
X121759948Y-106046815D01*
X120861923Y-106944840D01*
X120323108Y-106406025D01*
X120323108Y-106406025D01*
G37*
G36*
X125352052Y-104969185D02*
X126250077Y-104071160D01*
X126788892Y-104609975D01*
X125890867Y-105508000D01*
X125352052Y-104969185D01*
X125352052Y-104969185D01*
G37*
G36*
X122119160Y-108202077D02*
X123017185Y-107304052D01*
X123556000Y-107842867D01*
X122657975Y-108740892D01*
X122119160Y-108202077D01*
X122119160Y-108202077D01*
G37*
D18*
X123122000Y-111223000D03*
X126022000Y-111223000D03*
D19*
X111960900Y-102968000D03*
D20*
X114031000Y-105038100D03*
D19*
X116101100Y-102968000D03*
D20*
X114031000Y-100897900D03*
D21*
X107300000Y-102984000D02*
X111944900Y-102984000D01*
X111944900Y-102984000D02*
X111960900Y-102968000D01*
X98438000Y-104986000D02*
X107298000Y-104986000D01*
X107298000Y-104986000D02*
X107300000Y-104984000D01*
X141590000Y-105000000D02*
X132716000Y-105000000D01*
X132716000Y-105000000D02*
X132700000Y-104984000D01*
X132700000Y-102984000D02*
X124283948Y-102984000D01*
X124283948Y-102984000D02*
X124274420Y-102993528D01*
X116101100Y-102968000D02*
X124248892Y-102968000D01*
X124248892Y-102968000D02*
X124274420Y-102993528D01*
X123122000Y-111223000D02*
X120778000Y-111223000D01*
X120778000Y-111223000D02*
X120762000Y-111239000D01*
X114920000Y-111223000D02*
X120746000Y-111223000D01*
X120746000Y-111223000D02*
X120762000Y-111239000D01*
X126022000Y-111223000D02*
X126022000Y-104838052D01*
X126022000Y-104838052D02*
X126070472Y-104789580D01*
D22*
G36*
X143201698Y-91809506D02*
X142663614Y-93105358D01*
X142662389Y-94508486D01*
X143198211Y-95805275D01*
X144189506Y-96798302D01*
X145485358Y-97336386D01*
X146888486Y-97337611D01*
X148185275Y-96801789D01*
X148901000Y-96087312D01*
X148901000Y-113913445D01*
X148190494Y-113201698D01*
X146894642Y-112663614D01*
X145491514Y-112662389D01*
X144194725Y-113198211D01*
X143201698Y-114189506D01*
X142663614Y-115485358D01*
X142662389Y-116888486D01*
X143198211Y-118185275D01*
X143870761Y-118859000D01*
X96128628Y-118859000D01*
X96798302Y-118190494D01*
X97336386Y-116894642D01*
X97337611Y-115491514D01*
X96801789Y-114194725D01*
X95810494Y-113201698D01*
X94514642Y-112663614D01*
X93111514Y-112662389D01*
X91814725Y-113198211D01*
X91155000Y-113856785D01*
X91155000Y-110207000D01*
X113570594Y-110207000D01*
X113570594Y-112239000D01*
X113593395Y-112360179D01*
X113665012Y-112471474D01*
X113774286Y-112546138D01*
X113904000Y-112572406D01*
X115936000Y-112572406D01*
X116057179Y-112549605D01*
X116168474Y-112477988D01*
X116243138Y-112368714D01*
X116269406Y-112239000D01*
X116269406Y-111907000D01*
X119856524Y-111907000D01*
X119898012Y-111971474D01*
X120007286Y-112046138D01*
X120137000Y-112072406D01*
X121387000Y-112072406D01*
X121508179Y-112049605D01*
X121619474Y-111977988D01*
X121667978Y-111907000D01*
X122338594Y-111907000D01*
X122338594Y-112073000D01*
X122361395Y-112194179D01*
X122433012Y-112305474D01*
X122542286Y-112380138D01*
X122672000Y-112406406D01*
X123572000Y-112406406D01*
X123693179Y-112383605D01*
X123804474Y-112311988D01*
X123879138Y-112202714D01*
X123905406Y-112073000D01*
X123905406Y-110373000D01*
X123882605Y-110251821D01*
X123810988Y-110140526D01*
X123701714Y-110065862D01*
X123572000Y-110039594D01*
X122672000Y-110039594D01*
X122550821Y-110062395D01*
X122439526Y-110134012D01*
X122364862Y-110243286D01*
X122338594Y-110373000D01*
X122338594Y-110539000D01*
X121646885Y-110539000D01*
X121625988Y-110506526D01*
X121516714Y-110431862D01*
X121387000Y-110405594D01*
X120137000Y-110405594D01*
X120015821Y-110428395D01*
X119904526Y-110500012D01*
X119877887Y-110539000D01*
X116269406Y-110539000D01*
X116269406Y-110207000D01*
X116246605Y-110085821D01*
X116174988Y-109974526D01*
X116065714Y-109899862D01*
X115936000Y-109873594D01*
X113904000Y-109873594D01*
X113782821Y-109896395D01*
X113671526Y-109968012D01*
X113596862Y-110077286D01*
X113570594Y-110207000D01*
X91155000Y-110207000D01*
X91155000Y-108823175D01*
X94780430Y-108823175D01*
X94903565Y-109110788D01*
X95585734Y-109370707D01*
X96315443Y-109349786D01*
X96892435Y-109110788D01*
X97015570Y-108823175D01*
X99860430Y-108823175D01*
X99983565Y-109110788D01*
X100665734Y-109370707D01*
X101395443Y-109349786D01*
X101972435Y-109110788D01*
X102095570Y-108823175D01*
X100978000Y-107705605D01*
X99860430Y-108823175D01*
X97015570Y-108823175D01*
X95898000Y-107705605D01*
X94780430Y-108823175D01*
X91155000Y-108823175D01*
X91155000Y-107213734D01*
X94053293Y-107213734D01*
X94074214Y-107943443D01*
X94313212Y-108520435D01*
X94600825Y-108643570D01*
X95718395Y-107526000D01*
X96077605Y-107526000D01*
X97195175Y-108643570D01*
X97482788Y-108520435D01*
X97742707Y-107838266D01*
X97724802Y-107213734D01*
X99133293Y-107213734D01*
X99154214Y-107943443D01*
X99393212Y-108520435D01*
X99680825Y-108643570D01*
X100798395Y-107526000D01*
X101157605Y-107526000D01*
X102275175Y-108643570D01*
X102562788Y-108520435D01*
X102685843Y-108197471D01*
X121785786Y-108197471D01*
X121810259Y-108327535D01*
X121883406Y-108437831D01*
X122422221Y-108976646D01*
X122524031Y-109046209D01*
X122653369Y-109074266D01*
X122783433Y-109049793D01*
X122893729Y-108976646D01*
X123791754Y-108078621D01*
X123861317Y-107976811D01*
X123889374Y-107847473D01*
X123864901Y-107717409D01*
X123791754Y-107607113D01*
X123252939Y-107068298D01*
X123151129Y-106998735D01*
X123021791Y-106970678D01*
X122891727Y-106995151D01*
X122781431Y-107068298D01*
X121883406Y-107966323D01*
X121813843Y-108068133D01*
X121785786Y-108197471D01*
X102685843Y-108197471D01*
X102822707Y-107838266D01*
X102801786Y-107108557D01*
X102562788Y-106531565D01*
X102275175Y-106408430D01*
X101157605Y-107526000D01*
X100798395Y-107526000D01*
X99680825Y-106408430D01*
X99393212Y-106531565D01*
X99133293Y-107213734D01*
X97724802Y-107213734D01*
X97721786Y-107108557D01*
X97482788Y-106531565D01*
X97195175Y-106408430D01*
X96077605Y-107526000D01*
X95718395Y-107526000D01*
X94600825Y-106408430D01*
X94313212Y-106531565D01*
X94053293Y-107213734D01*
X91155000Y-107213734D01*
X91155000Y-106228825D01*
X94780430Y-106228825D01*
X95898000Y-107346395D01*
X97015570Y-106228825D01*
X96892435Y-105941212D01*
X96210266Y-105681293D01*
X95480557Y-105702214D01*
X94903565Y-105941212D01*
X94780430Y-106228825D01*
X91155000Y-106228825D01*
X91155000Y-105278505D01*
X96960744Y-105278505D01*
X97185130Y-105821560D01*
X97600254Y-106237409D01*
X98142918Y-106462743D01*
X98730505Y-106463256D01*
X99273560Y-106238870D01*
X99283622Y-106228825D01*
X99860430Y-106228825D01*
X100978000Y-107346395D01*
X101922976Y-106401419D01*
X119989734Y-106401419D01*
X120014207Y-106531483D01*
X120087354Y-106641779D01*
X120626169Y-107180594D01*
X120727979Y-107250157D01*
X120857317Y-107278214D01*
X120987381Y-107253741D01*
X121097677Y-107180594D01*
X121995702Y-106282569D01*
X122065265Y-106180759D01*
X122093322Y-106051421D01*
X122068849Y-105921357D01*
X121995702Y-105811061D01*
X121456887Y-105272246D01*
X121355077Y-105202683D01*
X121225739Y-105174626D01*
X121095675Y-105199099D01*
X120985379Y-105272246D01*
X120087354Y-106170271D01*
X120017791Y-106272081D01*
X119989734Y-106401419D01*
X101922976Y-106401419D01*
X102095570Y-106228825D01*
X101972435Y-105941212D01*
X101290266Y-105681293D01*
X100560557Y-105702214D01*
X99983565Y-105941212D01*
X99860430Y-106228825D01*
X99283622Y-106228825D01*
X99689409Y-105823746D01*
X99753250Y-105670000D01*
X106406107Y-105670000D01*
X106436012Y-105716474D01*
X106545286Y-105791138D01*
X106675000Y-105817406D01*
X107925000Y-105817406D01*
X108046179Y-105794605D01*
X108157474Y-105722988D01*
X108232138Y-105613714D01*
X108258406Y-105484000D01*
X108258406Y-104964579D01*
X125018678Y-104964579D01*
X125043151Y-105094643D01*
X125116298Y-105204939D01*
X125338000Y-105426641D01*
X125338000Y-110136245D01*
X125264862Y-110243286D01*
X125238594Y-110373000D01*
X125238594Y-112073000D01*
X125261395Y-112194179D01*
X125333012Y-112305474D01*
X125442286Y-112380138D01*
X125572000Y-112406406D01*
X126472000Y-112406406D01*
X126593179Y-112383605D01*
X126704474Y-112311988D01*
X126779138Y-112202714D01*
X126805406Y-112073000D01*
X126805406Y-110373000D01*
X126782605Y-110251821D01*
X126710988Y-110140526D01*
X126706000Y-110137118D01*
X126706000Y-108837175D01*
X137932430Y-108837175D01*
X138055565Y-109124788D01*
X138737734Y-109384707D01*
X139467443Y-109363786D01*
X140044435Y-109124788D01*
X140167570Y-108837175D01*
X143012430Y-108837175D01*
X143135565Y-109124788D01*
X143817734Y-109384707D01*
X144547443Y-109363786D01*
X145124435Y-109124788D01*
X145247570Y-108837175D01*
X144130000Y-107719605D01*
X143012430Y-108837175D01*
X140167570Y-108837175D01*
X139050000Y-107719605D01*
X137932430Y-108837175D01*
X126706000Y-108837175D01*
X126706000Y-107227734D01*
X137205293Y-107227734D01*
X137226214Y-107957443D01*
X137465212Y-108534435D01*
X137752825Y-108657570D01*
X138870395Y-107540000D01*
X139229605Y-107540000D01*
X140347175Y-108657570D01*
X140634788Y-108534435D01*
X140894707Y-107852266D01*
X140876802Y-107227734D01*
X142285293Y-107227734D01*
X142306214Y-107957443D01*
X142545212Y-108534435D01*
X142832825Y-108657570D01*
X143950395Y-107540000D01*
X144309605Y-107540000D01*
X145427175Y-108657570D01*
X145714788Y-108534435D01*
X145974707Y-107852266D01*
X145953786Y-107122557D01*
X145714788Y-106545565D01*
X145427175Y-106422430D01*
X144309605Y-107540000D01*
X143950395Y-107540000D01*
X142832825Y-106422430D01*
X142545212Y-106545565D01*
X142285293Y-107227734D01*
X140876802Y-107227734D01*
X140873786Y-107122557D01*
X140634788Y-106545565D01*
X140347175Y-106422430D01*
X139229605Y-107540000D01*
X138870395Y-107540000D01*
X137752825Y-106422430D01*
X137465212Y-106545565D01*
X137205293Y-107227734D01*
X126706000Y-107227734D01*
X126706000Y-106242825D01*
X137932430Y-106242825D01*
X139050000Y-107360395D01*
X140167570Y-106242825D01*
X140044435Y-105955212D01*
X139362266Y-105695293D01*
X138632557Y-105716214D01*
X138055565Y-105955212D01*
X137932430Y-106242825D01*
X126706000Y-106242825D01*
X126706000Y-105164375D01*
X127024646Y-104845729D01*
X127094209Y-104743919D01*
X127122266Y-104614581D01*
X127097793Y-104484517D01*
X127097451Y-104484000D01*
X131741594Y-104484000D01*
X131741594Y-105484000D01*
X131764395Y-105605179D01*
X131836012Y-105716474D01*
X131945286Y-105791138D01*
X132075000Y-105817406D01*
X133325000Y-105817406D01*
X133446179Y-105794605D01*
X133557474Y-105722988D01*
X133584113Y-105684000D01*
X140274507Y-105684000D01*
X140337130Y-105835560D01*
X140752254Y-106251409D01*
X141294918Y-106476743D01*
X141882505Y-106477256D01*
X142425560Y-106252870D01*
X142435622Y-106242825D01*
X143012430Y-106242825D01*
X144130000Y-107360395D01*
X145247570Y-106242825D01*
X145124435Y-105955212D01*
X144442266Y-105695293D01*
X143712557Y-105716214D01*
X143135565Y-105955212D01*
X143012430Y-106242825D01*
X142435622Y-106242825D01*
X142841409Y-105837746D01*
X143066743Y-105295082D01*
X143067256Y-104707495D01*
X142842870Y-104164440D01*
X142436316Y-103757175D01*
X143012430Y-103757175D01*
X143135565Y-104044788D01*
X143817734Y-104304707D01*
X144547443Y-104283786D01*
X145124435Y-104044788D01*
X145247570Y-103757175D01*
X144130000Y-102639605D01*
X143012430Y-103757175D01*
X142436316Y-103757175D01*
X142427746Y-103748591D01*
X141885082Y-103523257D01*
X141297495Y-103522744D01*
X140754440Y-103747130D01*
X140338591Y-104162254D01*
X140274750Y-104316000D01*
X133605476Y-104316000D01*
X133563988Y-104251526D01*
X133454714Y-104176862D01*
X133325000Y-104150594D01*
X132075000Y-104150594D01*
X131953821Y-104173395D01*
X131842526Y-104245012D01*
X131767862Y-104354286D01*
X131741594Y-104484000D01*
X127097451Y-104484000D01*
X127024646Y-104374221D01*
X126485831Y-103835406D01*
X126384021Y-103765843D01*
X126254683Y-103737786D01*
X126124619Y-103762259D01*
X126014323Y-103835406D01*
X125116298Y-104733431D01*
X125046735Y-104835241D01*
X125018678Y-104964579D01*
X108258406Y-104964579D01*
X108258406Y-104484000D01*
X108235605Y-104362821D01*
X108163988Y-104251526D01*
X108054714Y-104176862D01*
X107925000Y-104150594D01*
X106675000Y-104150594D01*
X106553821Y-104173395D01*
X106442526Y-104245012D01*
X106403588Y-104302000D01*
X99753493Y-104302000D01*
X99690870Y-104150440D01*
X99284316Y-103743175D01*
X99860430Y-103743175D01*
X99983565Y-104030788D01*
X100665734Y-104290707D01*
X101395443Y-104269786D01*
X101972435Y-104030788D01*
X102095570Y-103743175D01*
X100978000Y-102625605D01*
X99860430Y-103743175D01*
X99284316Y-103743175D01*
X99275746Y-103734591D01*
X98733082Y-103509257D01*
X98145495Y-103508744D01*
X97602440Y-103733130D01*
X97186591Y-104148254D01*
X96961257Y-104690918D01*
X96960744Y-105278505D01*
X91155000Y-105278505D01*
X91155000Y-103743175D01*
X94780430Y-103743175D01*
X94903565Y-104030788D01*
X95585734Y-104290707D01*
X96315443Y-104269786D01*
X96892435Y-104030788D01*
X97015570Y-103743175D01*
X95898000Y-102625605D01*
X94780430Y-103743175D01*
X91155000Y-103743175D01*
X91155000Y-102133734D01*
X94053293Y-102133734D01*
X94074214Y-102863443D01*
X94313212Y-103440435D01*
X94600825Y-103563570D01*
X95718395Y-102446000D01*
X96077605Y-102446000D01*
X97195175Y-103563570D01*
X97482788Y-103440435D01*
X97742707Y-102758266D01*
X97724802Y-102133734D01*
X99133293Y-102133734D01*
X99154214Y-102863443D01*
X99393212Y-103440435D01*
X99680825Y-103563570D01*
X100798395Y-102446000D01*
X101157605Y-102446000D01*
X102275175Y-103563570D01*
X102562788Y-103440435D01*
X102822707Y-102758266D01*
X102814844Y-102484000D01*
X106341594Y-102484000D01*
X106341594Y-103484000D01*
X106364395Y-103605179D01*
X106436012Y-103716474D01*
X106545286Y-103791138D01*
X106675000Y-103817406D01*
X107925000Y-103817406D01*
X108046179Y-103794605D01*
X108157474Y-103722988D01*
X108195046Y-103668000D01*
X110781467Y-103668000D01*
X110807512Y-103708474D01*
X110916786Y-103783138D01*
X111046500Y-103809406D01*
X112875300Y-103809406D01*
X112996479Y-103786605D01*
X113107774Y-103714988D01*
X113182438Y-103605714D01*
X113208706Y-103476000D01*
X113208706Y-102460000D01*
X114853294Y-102460000D01*
X114853294Y-103476000D01*
X114876095Y-103597179D01*
X114947712Y-103708474D01*
X115056986Y-103783138D01*
X115186700Y-103809406D01*
X117015500Y-103809406D01*
X117136679Y-103786605D01*
X117247974Y-103714988D01*
X117291012Y-103652000D01*
X123563359Y-103652000D01*
X123859061Y-103947702D01*
X123960871Y-104017265D01*
X124090209Y-104045322D01*
X124220273Y-104020849D01*
X124330569Y-103947702D01*
X124610271Y-103668000D01*
X131804820Y-103668000D01*
X131836012Y-103716474D01*
X131945286Y-103791138D01*
X132075000Y-103817406D01*
X133325000Y-103817406D01*
X133446179Y-103794605D01*
X133504346Y-103757175D01*
X137932430Y-103757175D01*
X138055565Y-104044788D01*
X138737734Y-104304707D01*
X139467443Y-104283786D01*
X140044435Y-104044788D01*
X140167570Y-103757175D01*
X139050000Y-102639605D01*
X137932430Y-103757175D01*
X133504346Y-103757175D01*
X133557474Y-103722988D01*
X133632138Y-103613714D01*
X133658406Y-103484000D01*
X133658406Y-102484000D01*
X133635605Y-102362821D01*
X133563988Y-102251526D01*
X133454714Y-102176862D01*
X133325000Y-102150594D01*
X132075000Y-102150594D01*
X131953821Y-102173395D01*
X131842526Y-102245012D01*
X131804954Y-102300000D01*
X124950425Y-102300000D01*
X124798159Y-102147734D01*
X137205293Y-102147734D01*
X137226214Y-102877443D01*
X137465212Y-103454435D01*
X137752825Y-103577570D01*
X138870395Y-102460000D01*
X139229605Y-102460000D01*
X140347175Y-103577570D01*
X140634788Y-103454435D01*
X140894707Y-102772266D01*
X140876802Y-102147734D01*
X142285293Y-102147734D01*
X142306214Y-102877443D01*
X142545212Y-103454435D01*
X142832825Y-103577570D01*
X143950395Y-102460000D01*
X144309605Y-102460000D01*
X145427175Y-103577570D01*
X145714788Y-103454435D01*
X145974707Y-102772266D01*
X145953786Y-102042557D01*
X145714788Y-101465565D01*
X145427175Y-101342430D01*
X144309605Y-102460000D01*
X143950395Y-102460000D01*
X142832825Y-101342430D01*
X142545212Y-101465565D01*
X142285293Y-102147734D01*
X140876802Y-102147734D01*
X140873786Y-102042557D01*
X140634788Y-101465565D01*
X140347175Y-101342430D01*
X139229605Y-102460000D01*
X138870395Y-102460000D01*
X137752825Y-101342430D01*
X137465212Y-101465565D01*
X137205293Y-102147734D01*
X124798159Y-102147734D01*
X124689779Y-102039354D01*
X124587969Y-101969791D01*
X124458631Y-101941734D01*
X124328567Y-101966207D01*
X124218271Y-102039354D01*
X123973625Y-102284000D01*
X117290828Y-102284000D01*
X117254488Y-102227526D01*
X117145214Y-102152862D01*
X117015500Y-102126594D01*
X115186700Y-102126594D01*
X115065521Y-102149395D01*
X114954226Y-102221012D01*
X114879562Y-102330286D01*
X114853294Y-102460000D01*
X113208706Y-102460000D01*
X113185905Y-102338821D01*
X113114288Y-102227526D01*
X113005014Y-102152862D01*
X112875300Y-102126594D01*
X111046500Y-102126594D01*
X110925321Y-102149395D01*
X110814026Y-102221012D01*
X110760056Y-102300000D01*
X108195180Y-102300000D01*
X108163988Y-102251526D01*
X108054714Y-102176862D01*
X107925000Y-102150594D01*
X106675000Y-102150594D01*
X106553821Y-102173395D01*
X106442526Y-102245012D01*
X106367862Y-102354286D01*
X106341594Y-102484000D01*
X102814844Y-102484000D01*
X102801786Y-102028557D01*
X102562788Y-101451565D01*
X102275175Y-101328430D01*
X101157605Y-102446000D01*
X100798395Y-102446000D01*
X99680825Y-101328430D01*
X99393212Y-101451565D01*
X99133293Y-102133734D01*
X97724802Y-102133734D01*
X97721786Y-102028557D01*
X97482788Y-101451565D01*
X97195175Y-101328430D01*
X96077605Y-102446000D01*
X95718395Y-102446000D01*
X94600825Y-101328430D01*
X94313212Y-101451565D01*
X94053293Y-102133734D01*
X91155000Y-102133734D01*
X91155000Y-101148825D01*
X94780430Y-101148825D01*
X95898000Y-102266395D01*
X97015570Y-101148825D01*
X99860430Y-101148825D01*
X100978000Y-102266395D01*
X102081570Y-101162825D01*
X137932430Y-101162825D01*
X139050000Y-102280395D01*
X140167570Y-101162825D01*
X143012430Y-101162825D01*
X144130000Y-102280395D01*
X145247570Y-101162825D01*
X145124435Y-100875212D01*
X144442266Y-100615293D01*
X143712557Y-100636214D01*
X143135565Y-100875212D01*
X143012430Y-101162825D01*
X140167570Y-101162825D01*
X140044435Y-100875212D01*
X139362266Y-100615293D01*
X138632557Y-100636214D01*
X138055565Y-100875212D01*
X137932430Y-101162825D01*
X102081570Y-101162825D01*
X102095570Y-101148825D01*
X101972435Y-100861212D01*
X101290266Y-100601293D01*
X100560557Y-100622214D01*
X99983565Y-100861212D01*
X99860430Y-101148825D01*
X97015570Y-101148825D01*
X96892435Y-100861212D01*
X96210266Y-100601293D01*
X95480557Y-100622214D01*
X94903565Y-100861212D01*
X94780430Y-101148825D01*
X91155000Y-101148825D01*
X91155000Y-96142652D01*
X91809506Y-96798302D01*
X93105358Y-97336386D01*
X94508486Y-97337611D01*
X95805275Y-96801789D01*
X96798302Y-95810494D01*
X97336386Y-94514642D01*
X97337611Y-93111514D01*
X96801789Y-91814725D01*
X96101288Y-91113000D01*
X143899421Y-91113000D01*
X143201698Y-91809506D01*
X143201698Y-91809506D01*
G37*
X143201698Y-91809506D02*
X142663614Y-93105358D01*
X142662389Y-94508486D01*
X143198211Y-95805275D01*
X144189506Y-96798302D01*
X145485358Y-97336386D01*
X146888486Y-97337611D01*
X148185275Y-96801789D01*
X148901000Y-96087312D01*
X148901000Y-113913445D01*
X148190494Y-113201698D01*
X146894642Y-112663614D01*
X145491514Y-112662389D01*
X144194725Y-113198211D01*
X143201698Y-114189506D01*
X142663614Y-115485358D01*
X142662389Y-116888486D01*
X143198211Y-118185275D01*
X143870761Y-118859000D01*
X96128628Y-118859000D01*
X96798302Y-118190494D01*
X97336386Y-116894642D01*
X97337611Y-115491514D01*
X96801789Y-114194725D01*
X95810494Y-113201698D01*
X94514642Y-112663614D01*
X93111514Y-112662389D01*
X91814725Y-113198211D01*
X91155000Y-113856785D01*
X91155000Y-110207000D01*
X113570594Y-110207000D01*
X113570594Y-112239000D01*
X113593395Y-112360179D01*
X113665012Y-112471474D01*
X113774286Y-112546138D01*
X113904000Y-112572406D01*
X115936000Y-112572406D01*
X116057179Y-112549605D01*
X116168474Y-112477988D01*
X116243138Y-112368714D01*
X116269406Y-112239000D01*
X116269406Y-111907000D01*
X119856524Y-111907000D01*
X119898012Y-111971474D01*
X120007286Y-112046138D01*
X120137000Y-112072406D01*
X121387000Y-112072406D01*
X121508179Y-112049605D01*
X121619474Y-111977988D01*
X121667978Y-111907000D01*
X122338594Y-111907000D01*
X122338594Y-112073000D01*
X122361395Y-112194179D01*
X122433012Y-112305474D01*
X122542286Y-112380138D01*
X122672000Y-112406406D01*
X123572000Y-112406406D01*
X123693179Y-112383605D01*
X123804474Y-112311988D01*
X123879138Y-112202714D01*
X123905406Y-112073000D01*
X123905406Y-110373000D01*
X123882605Y-110251821D01*
X123810988Y-110140526D01*
X123701714Y-110065862D01*
X123572000Y-110039594D01*
X122672000Y-110039594D01*
X122550821Y-110062395D01*
X122439526Y-110134012D01*
X122364862Y-110243286D01*
X122338594Y-110373000D01*
X122338594Y-110539000D01*
X121646885Y-110539000D01*
X121625988Y-110506526D01*
X121516714Y-110431862D01*
X121387000Y-110405594D01*
X120137000Y-110405594D01*
X120015821Y-110428395D01*
X119904526Y-110500012D01*
X119877887Y-110539000D01*
X116269406Y-110539000D01*
X116269406Y-110207000D01*
X116246605Y-110085821D01*
X116174988Y-109974526D01*
X116065714Y-109899862D01*
X115936000Y-109873594D01*
X113904000Y-109873594D01*
X113782821Y-109896395D01*
X113671526Y-109968012D01*
X113596862Y-110077286D01*
X113570594Y-110207000D01*
X91155000Y-110207000D01*
X91155000Y-108823175D01*
X94780430Y-108823175D01*
X94903565Y-109110788D01*
X95585734Y-109370707D01*
X96315443Y-109349786D01*
X96892435Y-109110788D01*
X97015570Y-108823175D01*
X99860430Y-108823175D01*
X99983565Y-109110788D01*
X100665734Y-109370707D01*
X101395443Y-109349786D01*
X101972435Y-109110788D01*
X102095570Y-108823175D01*
X100978000Y-107705605D01*
X99860430Y-108823175D01*
X97015570Y-108823175D01*
X95898000Y-107705605D01*
X94780430Y-108823175D01*
X91155000Y-108823175D01*
X91155000Y-107213734D01*
X94053293Y-107213734D01*
X94074214Y-107943443D01*
X94313212Y-108520435D01*
X94600825Y-108643570D01*
X95718395Y-107526000D01*
X96077605Y-107526000D01*
X97195175Y-108643570D01*
X97482788Y-108520435D01*
X97742707Y-107838266D01*
X97724802Y-107213734D01*
X99133293Y-107213734D01*
X99154214Y-107943443D01*
X99393212Y-108520435D01*
X99680825Y-108643570D01*
X100798395Y-107526000D01*
X101157605Y-107526000D01*
X102275175Y-108643570D01*
X102562788Y-108520435D01*
X102685843Y-108197471D01*
X121785786Y-108197471D01*
X121810259Y-108327535D01*
X121883406Y-108437831D01*
X122422221Y-108976646D01*
X122524031Y-109046209D01*
X122653369Y-109074266D01*
X122783433Y-109049793D01*
X122893729Y-108976646D01*
X123791754Y-108078621D01*
X123861317Y-107976811D01*
X123889374Y-107847473D01*
X123864901Y-107717409D01*
X123791754Y-107607113D01*
X123252939Y-107068298D01*
X123151129Y-106998735D01*
X123021791Y-106970678D01*
X122891727Y-106995151D01*
X122781431Y-107068298D01*
X121883406Y-107966323D01*
X121813843Y-108068133D01*
X121785786Y-108197471D01*
X102685843Y-108197471D01*
X102822707Y-107838266D01*
X102801786Y-107108557D01*
X102562788Y-106531565D01*
X102275175Y-106408430D01*
X101157605Y-107526000D01*
X100798395Y-107526000D01*
X99680825Y-106408430D01*
X99393212Y-106531565D01*
X99133293Y-107213734D01*
X97724802Y-107213734D01*
X97721786Y-107108557D01*
X97482788Y-106531565D01*
X97195175Y-106408430D01*
X96077605Y-107526000D01*
X95718395Y-107526000D01*
X94600825Y-106408430D01*
X94313212Y-106531565D01*
X94053293Y-107213734D01*
X91155000Y-107213734D01*
X91155000Y-106228825D01*
X94780430Y-106228825D01*
X95898000Y-107346395D01*
X97015570Y-106228825D01*
X96892435Y-105941212D01*
X96210266Y-105681293D01*
X95480557Y-105702214D01*
X94903565Y-105941212D01*
X94780430Y-106228825D01*
X91155000Y-106228825D01*
X91155000Y-105278505D01*
X96960744Y-105278505D01*
X97185130Y-105821560D01*
X97600254Y-106237409D01*
X98142918Y-106462743D01*
X98730505Y-106463256D01*
X99273560Y-106238870D01*
X99283622Y-106228825D01*
X99860430Y-106228825D01*
X100978000Y-107346395D01*
X101922976Y-106401419D01*
X119989734Y-106401419D01*
X120014207Y-106531483D01*
X120087354Y-106641779D01*
X120626169Y-107180594D01*
X120727979Y-107250157D01*
X120857317Y-107278214D01*
X120987381Y-107253741D01*
X121097677Y-107180594D01*
X121995702Y-106282569D01*
X122065265Y-106180759D01*
X122093322Y-106051421D01*
X122068849Y-105921357D01*
X121995702Y-105811061D01*
X121456887Y-105272246D01*
X121355077Y-105202683D01*
X121225739Y-105174626D01*
X121095675Y-105199099D01*
X120985379Y-105272246D01*
X120087354Y-106170271D01*
X120017791Y-106272081D01*
X119989734Y-106401419D01*
X101922976Y-106401419D01*
X102095570Y-106228825D01*
X101972435Y-105941212D01*
X101290266Y-105681293D01*
X100560557Y-105702214D01*
X99983565Y-105941212D01*
X99860430Y-106228825D01*
X99283622Y-106228825D01*
X99689409Y-105823746D01*
X99753250Y-105670000D01*
X106406107Y-105670000D01*
X106436012Y-105716474D01*
X106545286Y-105791138D01*
X106675000Y-105817406D01*
X107925000Y-105817406D01*
X108046179Y-105794605D01*
X108157474Y-105722988D01*
X108232138Y-105613714D01*
X108258406Y-105484000D01*
X108258406Y-104964579D01*
X125018678Y-104964579D01*
X125043151Y-105094643D01*
X125116298Y-105204939D01*
X125338000Y-105426641D01*
X125338000Y-110136245D01*
X125264862Y-110243286D01*
X125238594Y-110373000D01*
X125238594Y-112073000D01*
X125261395Y-112194179D01*
X125333012Y-112305474D01*
X125442286Y-112380138D01*
X125572000Y-112406406D01*
X126472000Y-112406406D01*
X126593179Y-112383605D01*
X126704474Y-112311988D01*
X126779138Y-112202714D01*
X126805406Y-112073000D01*
X126805406Y-110373000D01*
X126782605Y-110251821D01*
X126710988Y-110140526D01*
X126706000Y-110137118D01*
X126706000Y-108837175D01*
X137932430Y-108837175D01*
X138055565Y-109124788D01*
X138737734Y-109384707D01*
X139467443Y-109363786D01*
X140044435Y-109124788D01*
X140167570Y-108837175D01*
X143012430Y-108837175D01*
X143135565Y-109124788D01*
X143817734Y-109384707D01*
X144547443Y-109363786D01*
X145124435Y-109124788D01*
X145247570Y-108837175D01*
X144130000Y-107719605D01*
X143012430Y-108837175D01*
X140167570Y-108837175D01*
X139050000Y-107719605D01*
X137932430Y-108837175D01*
X126706000Y-108837175D01*
X126706000Y-107227734D01*
X137205293Y-107227734D01*
X137226214Y-107957443D01*
X137465212Y-108534435D01*
X137752825Y-108657570D01*
X138870395Y-107540000D01*
X139229605Y-107540000D01*
X140347175Y-108657570D01*
X140634788Y-108534435D01*
X140894707Y-107852266D01*
X140876802Y-107227734D01*
X142285293Y-107227734D01*
X142306214Y-107957443D01*
X142545212Y-108534435D01*
X142832825Y-108657570D01*
X143950395Y-107540000D01*
X144309605Y-107540000D01*
X145427175Y-108657570D01*
X145714788Y-108534435D01*
X145974707Y-107852266D01*
X145953786Y-107122557D01*
X145714788Y-106545565D01*
X145427175Y-106422430D01*
X144309605Y-107540000D01*
X143950395Y-107540000D01*
X142832825Y-106422430D01*
X142545212Y-106545565D01*
X142285293Y-107227734D01*
X140876802Y-107227734D01*
X140873786Y-107122557D01*
X140634788Y-106545565D01*
X140347175Y-106422430D01*
X139229605Y-107540000D01*
X138870395Y-107540000D01*
X137752825Y-106422430D01*
X137465212Y-106545565D01*
X137205293Y-107227734D01*
X126706000Y-107227734D01*
X126706000Y-106242825D01*
X137932430Y-106242825D01*
X139050000Y-107360395D01*
X140167570Y-106242825D01*
X140044435Y-105955212D01*
X139362266Y-105695293D01*
X138632557Y-105716214D01*
X138055565Y-105955212D01*
X137932430Y-106242825D01*
X126706000Y-106242825D01*
X126706000Y-105164375D01*
X127024646Y-104845729D01*
X127094209Y-104743919D01*
X127122266Y-104614581D01*
X127097793Y-104484517D01*
X127097451Y-104484000D01*
X131741594Y-104484000D01*
X131741594Y-105484000D01*
X131764395Y-105605179D01*
X131836012Y-105716474D01*
X131945286Y-105791138D01*
X132075000Y-105817406D01*
X133325000Y-105817406D01*
X133446179Y-105794605D01*
X133557474Y-105722988D01*
X133584113Y-105684000D01*
X140274507Y-105684000D01*
X140337130Y-105835560D01*
X140752254Y-106251409D01*
X141294918Y-106476743D01*
X141882505Y-106477256D01*
X142425560Y-106252870D01*
X142435622Y-106242825D01*
X143012430Y-106242825D01*
X144130000Y-107360395D01*
X145247570Y-106242825D01*
X145124435Y-105955212D01*
X144442266Y-105695293D01*
X143712557Y-105716214D01*
X143135565Y-105955212D01*
X143012430Y-106242825D01*
X142435622Y-106242825D01*
X142841409Y-105837746D01*
X143066743Y-105295082D01*
X143067256Y-104707495D01*
X142842870Y-104164440D01*
X142436316Y-103757175D01*
X143012430Y-103757175D01*
X143135565Y-104044788D01*
X143817734Y-104304707D01*
X144547443Y-104283786D01*
X145124435Y-104044788D01*
X145247570Y-103757175D01*
X144130000Y-102639605D01*
X143012430Y-103757175D01*
X142436316Y-103757175D01*
X142427746Y-103748591D01*
X141885082Y-103523257D01*
X141297495Y-103522744D01*
X140754440Y-103747130D01*
X140338591Y-104162254D01*
X140274750Y-104316000D01*
X133605476Y-104316000D01*
X133563988Y-104251526D01*
X133454714Y-104176862D01*
X133325000Y-104150594D01*
X132075000Y-104150594D01*
X131953821Y-104173395D01*
X131842526Y-104245012D01*
X131767862Y-104354286D01*
X131741594Y-104484000D01*
X127097451Y-104484000D01*
X127024646Y-104374221D01*
X126485831Y-103835406D01*
X126384021Y-103765843D01*
X126254683Y-103737786D01*
X126124619Y-103762259D01*
X126014323Y-103835406D01*
X125116298Y-104733431D01*
X125046735Y-104835241D01*
X125018678Y-104964579D01*
X108258406Y-104964579D01*
X108258406Y-104484000D01*
X108235605Y-104362821D01*
X108163988Y-104251526D01*
X108054714Y-104176862D01*
X107925000Y-104150594D01*
X106675000Y-104150594D01*
X106553821Y-104173395D01*
X106442526Y-104245012D01*
X106403588Y-104302000D01*
X99753493Y-104302000D01*
X99690870Y-104150440D01*
X99284316Y-103743175D01*
X99860430Y-103743175D01*
X99983565Y-104030788D01*
X100665734Y-104290707D01*
X101395443Y-104269786D01*
X101972435Y-104030788D01*
X102095570Y-103743175D01*
X100978000Y-102625605D01*
X99860430Y-103743175D01*
X99284316Y-103743175D01*
X99275746Y-103734591D01*
X98733082Y-103509257D01*
X98145495Y-103508744D01*
X97602440Y-103733130D01*
X97186591Y-104148254D01*
X96961257Y-104690918D01*
X96960744Y-105278505D01*
X91155000Y-105278505D01*
X91155000Y-103743175D01*
X94780430Y-103743175D01*
X94903565Y-104030788D01*
X95585734Y-104290707D01*
X96315443Y-104269786D01*
X96892435Y-104030788D01*
X97015570Y-103743175D01*
X95898000Y-102625605D01*
X94780430Y-103743175D01*
X91155000Y-103743175D01*
X91155000Y-102133734D01*
X94053293Y-102133734D01*
X94074214Y-102863443D01*
X94313212Y-103440435D01*
X94600825Y-103563570D01*
X95718395Y-102446000D01*
X96077605Y-102446000D01*
X97195175Y-103563570D01*
X97482788Y-103440435D01*
X97742707Y-102758266D01*
X97724802Y-102133734D01*
X99133293Y-102133734D01*
X99154214Y-102863443D01*
X99393212Y-103440435D01*
X99680825Y-103563570D01*
X100798395Y-102446000D01*
X101157605Y-102446000D01*
X102275175Y-103563570D01*
X102562788Y-103440435D01*
X102822707Y-102758266D01*
X102814844Y-102484000D01*
X106341594Y-102484000D01*
X106341594Y-103484000D01*
X106364395Y-103605179D01*
X106436012Y-103716474D01*
X106545286Y-103791138D01*
X106675000Y-103817406D01*
X107925000Y-103817406D01*
X108046179Y-103794605D01*
X108157474Y-103722988D01*
X108195046Y-103668000D01*
X110781467Y-103668000D01*
X110807512Y-103708474D01*
X110916786Y-103783138D01*
X111046500Y-103809406D01*
X112875300Y-103809406D01*
X112996479Y-103786605D01*
X113107774Y-103714988D01*
X113182438Y-103605714D01*
X113208706Y-103476000D01*
X113208706Y-102460000D01*
X114853294Y-102460000D01*
X114853294Y-103476000D01*
X114876095Y-103597179D01*
X114947712Y-103708474D01*
X115056986Y-103783138D01*
X115186700Y-103809406D01*
X117015500Y-103809406D01*
X117136679Y-103786605D01*
X117247974Y-103714988D01*
X117291012Y-103652000D01*
X123563359Y-103652000D01*
X123859061Y-103947702D01*
X123960871Y-104017265D01*
X124090209Y-104045322D01*
X124220273Y-104020849D01*
X124330569Y-103947702D01*
X124610271Y-103668000D01*
X131804820Y-103668000D01*
X131836012Y-103716474D01*
X131945286Y-103791138D01*
X132075000Y-103817406D01*
X133325000Y-103817406D01*
X133446179Y-103794605D01*
X133504346Y-103757175D01*
X137932430Y-103757175D01*
X138055565Y-104044788D01*
X138737734Y-104304707D01*
X139467443Y-104283786D01*
X140044435Y-104044788D01*
X140167570Y-103757175D01*
X139050000Y-102639605D01*
X137932430Y-103757175D01*
X133504346Y-103757175D01*
X133557474Y-103722988D01*
X133632138Y-103613714D01*
X133658406Y-103484000D01*
X133658406Y-102484000D01*
X133635605Y-102362821D01*
X133563988Y-102251526D01*
X133454714Y-102176862D01*
X133325000Y-102150594D01*
X132075000Y-102150594D01*
X131953821Y-102173395D01*
X131842526Y-102245012D01*
X131804954Y-102300000D01*
X124950425Y-102300000D01*
X124798159Y-102147734D01*
X137205293Y-102147734D01*
X137226214Y-102877443D01*
X137465212Y-103454435D01*
X137752825Y-103577570D01*
X138870395Y-102460000D01*
X139229605Y-102460000D01*
X140347175Y-103577570D01*
X140634788Y-103454435D01*
X140894707Y-102772266D01*
X140876802Y-102147734D01*
X142285293Y-102147734D01*
X142306214Y-102877443D01*
X142545212Y-103454435D01*
X142832825Y-103577570D01*
X143950395Y-102460000D01*
X144309605Y-102460000D01*
X145427175Y-103577570D01*
X145714788Y-103454435D01*
X145974707Y-102772266D01*
X145953786Y-102042557D01*
X145714788Y-101465565D01*
X145427175Y-101342430D01*
X144309605Y-102460000D01*
X143950395Y-102460000D01*
X142832825Y-101342430D01*
X142545212Y-101465565D01*
X142285293Y-102147734D01*
X140876802Y-102147734D01*
X140873786Y-102042557D01*
X140634788Y-101465565D01*
X140347175Y-101342430D01*
X139229605Y-102460000D01*
X138870395Y-102460000D01*
X137752825Y-101342430D01*
X137465212Y-101465565D01*
X137205293Y-102147734D01*
X124798159Y-102147734D01*
X124689779Y-102039354D01*
X124587969Y-101969791D01*
X124458631Y-101941734D01*
X124328567Y-101966207D01*
X124218271Y-102039354D01*
X123973625Y-102284000D01*
X117290828Y-102284000D01*
X117254488Y-102227526D01*
X117145214Y-102152862D01*
X117015500Y-102126594D01*
X115186700Y-102126594D01*
X115065521Y-102149395D01*
X114954226Y-102221012D01*
X114879562Y-102330286D01*
X114853294Y-102460000D01*
X113208706Y-102460000D01*
X113185905Y-102338821D01*
X113114288Y-102227526D01*
X113005014Y-102152862D01*
X112875300Y-102126594D01*
X111046500Y-102126594D01*
X110925321Y-102149395D01*
X110814026Y-102221012D01*
X110760056Y-102300000D01*
X108195180Y-102300000D01*
X108163988Y-102251526D01*
X108054714Y-102176862D01*
X107925000Y-102150594D01*
X106675000Y-102150594D01*
X106553821Y-102173395D01*
X106442526Y-102245012D01*
X106367862Y-102354286D01*
X106341594Y-102484000D01*
X102814844Y-102484000D01*
X102801786Y-102028557D01*
X102562788Y-101451565D01*
X102275175Y-101328430D01*
X101157605Y-102446000D01*
X100798395Y-102446000D01*
X99680825Y-101328430D01*
X99393212Y-101451565D01*
X99133293Y-102133734D01*
X97724802Y-102133734D01*
X97721786Y-102028557D01*
X97482788Y-101451565D01*
X97195175Y-101328430D01*
X96077605Y-102446000D01*
X95718395Y-102446000D01*
X94600825Y-101328430D01*
X94313212Y-101451565D01*
X94053293Y-102133734D01*
X91155000Y-102133734D01*
X91155000Y-101148825D01*
X94780430Y-101148825D01*
X95898000Y-102266395D01*
X97015570Y-101148825D01*
X99860430Y-101148825D01*
X100978000Y-102266395D01*
X102081570Y-101162825D01*
X137932430Y-101162825D01*
X139050000Y-102280395D01*
X140167570Y-101162825D01*
X143012430Y-101162825D01*
X144130000Y-102280395D01*
X145247570Y-101162825D01*
X145124435Y-100875212D01*
X144442266Y-100615293D01*
X143712557Y-100636214D01*
X143135565Y-100875212D01*
X143012430Y-101162825D01*
X140167570Y-101162825D01*
X140044435Y-100875212D01*
X139362266Y-100615293D01*
X138632557Y-100636214D01*
X138055565Y-100875212D01*
X137932430Y-101162825D01*
X102081570Y-101162825D01*
X102095570Y-101148825D01*
X101972435Y-100861212D01*
X101290266Y-100601293D01*
X100560557Y-100622214D01*
X99983565Y-100861212D01*
X99860430Y-101148825D01*
X97015570Y-101148825D01*
X96892435Y-100861212D01*
X96210266Y-100601293D01*
X95480557Y-100622214D01*
X94903565Y-100861212D01*
X94780430Y-101148825D01*
X91155000Y-101148825D01*
X91155000Y-96142652D01*
X91809506Y-96798302D01*
X93105358Y-97336386D01*
X94508486Y-97337611D01*
X95805275Y-96801789D01*
X96798302Y-95810494D01*
X97336386Y-94514642D01*
X97337611Y-93111514D01*
X96801789Y-91814725D01*
X96101288Y-91113000D01*
X143899421Y-91113000D01*
X143201698Y-91809506D01*
D10*
X114920000Y-111223000D03*
X114920000Y-113763000D03*
D23*
X140000000Y-115000000D03*
X135000000Y-115000000D03*
X130000000Y-115000000D03*
X125000000Y-115000000D03*
X120000000Y-115000000D03*
X110000000Y-115000000D03*
X105000000Y-115000000D03*
X100000000Y-115000000D03*
X145000000Y-110000000D03*
X140000000Y-110000000D03*
X135000000Y-110000000D03*
X130000000Y-110000000D03*
X125000000Y-110000000D03*
X120000000Y-110000000D03*
X110000000Y-110000000D03*
X105000000Y-110000000D03*
X100000000Y-110000000D03*
X95000000Y-110000000D03*
X130000000Y-105000000D03*
X120000000Y-105000000D03*
X110000000Y-105000000D03*
X145000000Y-100000000D03*
X140000000Y-100000000D03*
X135000000Y-100000000D03*
X130000000Y-100000000D03*
X125000000Y-100000000D03*
X120000000Y-100000000D03*
X110000000Y-100000000D03*
X105000000Y-100000000D03*
X100000000Y-100000000D03*
X95000000Y-100000000D03*
X140000000Y-95000000D03*
X135000000Y-95000000D03*
X130000000Y-95000000D03*
X125000000Y-95000000D03*
X120000000Y-95000000D03*
X115000000Y-95000000D03*
X110000000Y-95000000D03*
X105000000Y-95000000D03*
X100000000Y-95000000D03*
X135240000Y-105889000D03*
X137399000Y-105889000D03*
X137399000Y-104111000D03*
X135240000Y-104111000D03*
X127620000Y-103857000D03*
X130160000Y-103857000D03*
X132700000Y-106016000D03*
X132700000Y-101952000D03*
X130160000Y-102079000D03*
X127620000Y-102079000D03*
X125080000Y-102079000D03*
X125080000Y-103857000D03*
X122540000Y-103857000D03*
X120000000Y-103857000D03*
X122540000Y-102079000D03*
X120000000Y-102079000D03*
X117460000Y-103857000D03*
X117460000Y-102079000D03*
X109840000Y-103857000D03*
X109840000Y-102079000D03*
X108316000Y-103984000D03*
X107300000Y-101825000D03*
X106284000Y-103984000D03*
X107300000Y-106016000D03*
X104760000Y-105889000D03*
X104760000Y-104111000D03*
X112634000Y-106524000D03*
X112634000Y-105000000D03*
X115428000Y-105000000D03*
X115428000Y-106524000D03*
X114031000Y-106524000D03*
X115428000Y-99412000D03*
X115428000Y-100936000D03*
X112634000Y-100936000D03*
X112634000Y-99412000D03*
X114031000Y-99412000D03*
X102220000Y-104111000D03*
X102220000Y-105889000D03*
D10*
X93810000Y-93810000D03*
X93810000Y-116190000D03*
X146190000Y-116190000D03*
X146190000Y-93810000D03*
X139050000Y-102460000D03*
X144130000Y-102460000D03*
X139050000Y-107540000D03*
X144130000Y-107540000D03*
X141590000Y-105000000D03*
X95898000Y-102446000D03*
X100978000Y-102446000D03*
X95898000Y-107526000D03*
X100978000Y-107526000D03*
X98438000Y-104986000D03*
M02*