M48
; Kicad Test File
; [FIXED 2:4 INCH LEADING]
INCH,TZ
T1C0.012
T2C0.040
T3C0.059
T4C0.063
T5C0.126
%
T1
X37795Y-39370G85X38189Y-39370
X37402Y-39370
X37402Y-43307
X39370Y-37402
X39370Y-39370
X39370Y-43307
X39370Y-45276
X40244Y-40989
X40244Y-41689
X41244Y-40989
X41244Y-41689
X41339Y-37402
X41339Y-39370
X41339Y-43307
X41339Y-45276
X41844Y-40939
X42244Y-40089
X42244Y-41739
X42644Y-40939
X43244Y-40189
X43244Y-40889
X43307Y-37402
X43307Y-39370
X43307Y-41339
X43307Y-43307
X43307Y-45276
X44344Y-39139
X44344Y-39739
X44344Y-41339
X44344Y-41939
X44894Y-39139
X44894Y-41939
X45276Y-37402
X45444Y-39139
X45444Y-39739
X45444Y-41339
X45444Y-41939
X46244Y-40189
X46244Y-40889
X47244Y-37402
X47244Y-39370
X47244Y-40189
X47244Y-40889
X47244Y-41339
X47244Y-43307
X47244Y-45276
X48244Y-40189
X48244Y-40889
X49213Y-37402
X49213Y-39370
X49213Y-43307
X49213Y-45276
X49244Y-40189
X49244Y-40889
X50244Y-40189
X50244Y-40889
X51181Y-37402
X51181Y-39370
X51181Y-41339
X51181Y-43307
X51181Y-45276
X51244Y-40189
X51244Y-40889
X52244Y-40139
X52244Y-41739
X53150Y-37402
X53150Y-39370
X53150Y-43307
X53150Y-45276
X53244Y-40989
X53244Y-41689
X54094Y-40989
X54094Y-41689
X55118Y-37402
X55118Y-39370
X55118Y-43307
X55118Y-45276
X57087Y-39370
X57087Y-43307
T2
X45244Y-43789
X45244Y-44789
T3
X38755Y-41333
X55744Y-41339
T4
X37755Y-40333
X37755Y-42333
X39755Y-40333
X39755Y-42333
X54744Y-40339
X54744Y-42339
X56744Y-40339
X56744Y-42339
T5
X36933Y-36933
X36933Y-45744
X57555Y-36933
X57555Y-45744
M30
