M48
; Kicad Test File
; [FIXED 2:4 INCH LEADING]
INCH,TZ
T1C0.012
T2C0.040
T3C0.059
T4C0.063
T5C0.126
T6C0.016
T7C0.035
T8C0.130
%
T1
X37795Y-39370G85X38189Y-39370
X37402Y-39370
X37402Y-43307
X39370Y-37402
X39370Y-39370
X39370Y-43307
X39370Y-45276
X40244Y-40989
X40244Y-41689
X41244Y-40989
X41244Y-41689
X41339Y-37402
X41339Y-39370
X41339Y-43307
X41339Y-45276
X41844Y-40939
X42244Y-40089
X42244Y-41739
X42644Y-40939
X43244Y-40189
X43244Y-40889
X43307Y-37402
X43307Y-39370
X43307Y-41339
X43307Y-43307
X43307Y-45276
X44344Y-39139
X44344Y-39739
X44344Y-41339
X44344Y-41939
X44894Y-39139
X44894Y-41939
X45276Y-37402
X45444Y-39139
X45444Y-39739
X45444Y-41339
X45444Y-41939
X46244Y-40189
X46244Y-40889
X47244Y-37402
X47244Y-39370
X47244Y-40189
X47244Y-40889
X47244Y-41339
X47244Y-43307
X47244Y-45276
X48244Y-40189
X48244Y-40889
X49213Y-37402
X49213Y-39370
X49213Y-43307
X49213Y-45276
X49244Y-40189
X49244Y-40889
X50244Y-40189
X50244Y-40889
X51181Y-37402
X51181Y-39370
X51181Y-41339
X51181Y-43307
X51181Y-45276
X51244Y-40189
X51244Y-40889
X52244Y-40139
X52244Y-41739
X53150Y-37402
X53150Y-39370
X53150Y-43307
X53150Y-45276
X53244Y-40989
X53244Y-41689
X54094Y-40989
X54094Y-41689
X55118Y-37402
X55118Y-39370
X55118Y-43307
X55118Y-45276
X57087Y-39370
X57087Y-43307
T2
X45244Y-43789
X45244Y-44789
T3
X38755Y-41333
X55744Y-41339
T4
X37755Y-40333
X37755Y-42333
X39755Y-40333
X39755Y-42333
X54744Y-40339
X54744Y-42339
X56744Y-40339
X56744Y-42339
T5
X36933Y-36933
X36933Y-45744
X57555Y-36933
X57555Y-45744
T6
X12283Y6063
X13465
X14646
Y7244
Y8425
X13465
X12283
Y9606
Y10787
Y11969
X13465
Y10787
X14646Y11969
Y13150
X13465
X12283
X14843Y14134
X16024
X15827Y13150
Y11969
Y10787
Y9606
Y8425
Y7244
Y6063
X17008
X18189
X19370
X20551
X21732
X22913
X24094
X25276
X26457
X27638
X28819
X30000
X31181
Y7244
X30000
X28819
X27638
Y8425
X28819
X30000
X31181
Y9606
X30000
X28819
X27638
X26457
Y8425
Y7244
X25276
X24094
X22913
Y8425
X24094
X25276
Y9606
Y10787
Y11969
X24094
X22913
X22953Y12874
X24244Y13181
X24362Y13969
X24213Y14437
X23709Y13937
X23150Y14528
Y14961
X22717
Y14528
X25276Y13780
Y13150
X26457
Y13780
X27638
Y13150
X28819
Y13780
X30000
Y13150
X31181
Y11969
Y10787
X30000
X28819
X27638
Y11969
X28819
X30000
X26457
Y10787
X24134Y9882
X22913Y10787
X20551
Y11969
X21732
X21181Y9882
X21732Y8425
Y7244
X20551
X19370
X18189
Y8425
X19370
X20551
X19370Y9606
X18189
X17008
Y8425
Y7244
Y13150
X18189
X18386Y14134
X19177Y13780
X17205Y14134
X32362Y13150
X33543
Y11969
Y10787
X32362
Y11969
Y9606
Y8425
X33543
Y9606
Y6063
X32362
Y16693
X33543
Y17874
X32362
Y19055
X33543
Y20236
X32362
Y21417
X33543
Y22598
X32362
Y23780
X33543
Y24961
X32362
Y26142
X33543
X32362Y27323
Y28504
X31181
Y27323
Y26142
X30000
X28819
X27638
Y27323
X28819
X30000
Y28504
X28819
X27638
X26457
Y27323
Y26142
X25551Y26142
X25276Y27323
Y28504
X24094
X22913
X21732
X20551
Y27323
X21339Y27323
X22520
X22835Y26063
X22126Y26142
Y25354
X22520Y24567
X20551Y25748
X19370Y26142
X18189
Y27323
X19370
Y28504
X18189
X17008
Y27323
Y26142
Y24961
Y23780
Y22717
X18189Y22598
Y23780
Y24961
X15827
Y23780
Y22598
Y21417
Y20236
Y19055
Y17874
Y16693
X15827Y15669
X17008
Y16693
Y17874
X17795Y17874
X18189Y16693
X18189Y15669
X19370Y15709
Y16693
X20551
Y15669
X21732Y16693
X22047Y17874
X22559
X22283Y18268
X21969Y18622
X21409Y18421
X21425Y17988
X20551Y17874
X19370
Y19055
Y20236
X17008
Y19055
X21043Y18909
X21740Y19260
X21713Y19748
X21720Y20122
X21748Y20697
X22913Y21417
X24319
X24528Y21024
X24094
Y21811
X24528
X25276Y21417
Y20236
X24760Y20110
X25276Y19055
X25260Y17646
X25315Y16969
X24461Y17421
X24071Y17535
X24067Y17047
X23307Y16732
Y18071
Y19252
X26890Y19449
X27638Y19055
Y17874
X26969Y17717
X26457Y16693
Y15669
X25276Y15630
X27638Y15748
X27638Y16693
X28819
Y15630
X30000
Y16693
X31181
Y17874
X30000
X28819
Y19055
X30000
X31181
Y20236
X30000
X28819
X27638
Y21417
X28819
X30000
X31181
Y22598
X30000
X28819
X27638
Y23780
X28819
X30000
X31181
Y24961
X30000
X28819
X27638
X26457Y21417
Y20236
X15827Y26142
Y27323
Y28504
X14646
Y27323
Y26142
X13465
Y27323
Y28504
X11969Y28543
X12283Y26142
Y24961
Y23780
Y22598
Y21417
Y20236
Y19055
Y17874
Y16693
X13465
X14646
Y17874
X13465
Y19055
X14646
Y20236
X13465
X14646Y21417
Y22598
Y23780
X13465
Y24961
X14646
T7
X13646Y9197
Y10197
X14646
Y9197
X26929Y11339
X27929
X28929
X29929
X25976Y26732
X24976
X23976
X22976
X21976
X20976
X19976
X18976
Y27732
X19976
X20976
X21976
X22976
X23976
X24976
X25976
X13504Y22244
Y21244
T3
X12087Y13937
X14055
X13071Y14921
X31732Y13898
X33701
X32717Y14882
X31732Y15866
X33701
X14055Y15906
X12087
T8
X12602Y7169
X33224
Y27791
X12602
M30
