M48
; [FIXED 2:4 INCH LEADING]
INCH,TZ
T1C0.012
T2C0.040
T3C0.059
T4C0.063
T5C0.126
%
T1
X1907Y7425G85X2301Y7425
X1514Y7425
X1514Y3488
X3482Y9393
X3482Y7425
X3482Y3488
X3482Y1519
X4356Y5806
X4356Y5106
X5356Y5806
X5356Y5106
X5451Y9393
X5451Y7425
X5451Y3488
X5451Y1519
X5956Y5856
X6356Y6706
X6356Y5056
X6756Y5856
X7356Y6606
X7356Y5906
X7419Y9393
X7419Y7425
X7419Y5456
X7419Y3488
X7419Y1519
X8456Y7656
X8456Y7056
X8456Y5456
X8456Y4856
X9006Y7656
X9006Y4856
X9388Y9393
X9556Y7656
X9556Y7056
X9556Y5456
X9556Y4856
X10356Y6606
X10356Y5906
X11356Y9393
X11356Y7425
X11356Y6606
X11356Y5906
X11356Y5456
X11356Y3488
X11356Y1519
X12356Y6606
X12356Y5906
X13325Y9393
X13325Y7425
X13325Y3488
X13325Y1519
X13356Y6606
X13356Y5906
X14356Y6606
X14356Y5906
X15293Y9393
X15293Y7425
X15293Y5456
X15293Y3488
X15293Y1519
X15356Y6606
X15356Y5906
X16356Y6656
X16356Y5056
X17262Y9393
X17262Y7425
X17262Y3488
X17262Y1519
X17356Y5806
X17356Y5106
X18206Y5806
X18206Y5106
X19230Y9393
X19230Y7425
X19230Y3488
X19230Y1519
X21199Y7425
X21199Y3488
T2
X9356Y3006
X9356Y2006
T3
X2867Y5462
X19856Y5456
T4
X1867Y6462
X1867Y4462
X3867Y6462
X3867Y4462
X18856Y6456
X18856Y4456
X20856Y6456
X20856Y4456
T5
X1045Y9862
X1045Y1051
X21667Y9862
X21667Y1051
T1
X1907Y19236G85X2301Y19236
X1514Y19236
X1514Y15299
X3482Y21204
X3482Y19236
X3482Y15299
X3482Y13330
X4356Y17617
X4356Y16917
X5356Y17617
X5356Y16917
X5451Y21204
X5451Y19236
X5451Y15299
X5451Y13330
X5956Y17667
X6356Y18517
X6356Y16867
X6756Y17667
X7356Y18417
X7356Y17717
X7419Y21204
X7419Y19236
X7419Y17267
X7419Y15299
X7419Y13330
X8456Y19467
X8456Y18867
X8456Y17267
X8456Y16667
X9006Y19467
X9006Y16667
X9388Y21204
X9556Y19467
X9556Y18867
X9556Y17267
X9556Y16667
X10356Y18417
X10356Y17717
X11356Y21204
X11356Y19236
X11356Y18417
X11356Y17717
X11356Y17267
X11356Y15299
X11356Y13330
X12356Y18417
X12356Y17717
X13325Y21204
X13325Y19236
X13325Y15299
X13325Y13330
X13356Y18417
X13356Y17717
X14356Y18417
X14356Y17717
X15293Y21204
X15293Y19236
X15293Y17267
X15293Y15299
X15293Y13330
X15356Y18417
X15356Y17717
X16356Y18467
X16356Y16867
X17262Y21204
X17262Y19236
X17262Y15299
X17262Y13330
X17356Y17617
X17356Y16917
X18206Y17617
X18206Y16917
X19230Y21204
X19230Y19236
X19230Y15299
X19230Y13330
X21199Y19236
X21199Y15299
T2
X9356Y14817
X9356Y13817
T3
X2867Y17273
X19856Y17267
T4
X1867Y18273
X1867Y16273
X3867Y18273
X3867Y16273
X18856Y18267
X18856Y16267
X20856Y18267
X20856Y16267
T5
X1045Y21673
X1045Y12862
X21667Y21673
X21667Y12862
M30
