M48
; [FIXED 2:4 INCH LEADING]
INCH,TZ
T1C0.012
T2C0.040
T3C0.059
T4C0.063
T5C0.126
%
T1
X3482Y8606G85X3876Y8606
X3089Y8606
X3089Y4669
X5057Y10574
X5057Y8606
X5057Y4669
X5057Y2700
X5931Y6987
X5931Y6287
X6931Y6987
X6931Y6287
X7026Y10574
X7026Y8606
X7026Y4669
X7026Y2700
X7531Y7037
X7931Y7887
X7931Y6237
X8331Y7037
X8931Y7787
X8931Y7087
X8994Y10574
X8994Y8606
X8994Y6637
X8994Y4669
X8994Y2700
X10031Y8837
X10031Y8237
X10031Y6637
X10031Y6037
X10581Y8837
X10581Y6037
X10963Y10574
X11131Y8837
X11131Y8237
X11131Y6637
X11131Y6037
X11931Y7787
X11931Y7087
X12931Y10574
X12931Y8606
X12931Y7787
X12931Y7087
X12931Y6637
X12931Y4669
X12931Y2700
X13931Y7787
X13931Y7087
X14900Y10574
X14900Y8606
X14900Y4669
X14900Y2700
X14931Y7787
X14931Y7087
X15931Y7787
X15931Y7087
X16868Y10574
X16868Y8606
X16868Y6637
X16868Y4669
X16868Y2700
X16931Y7787
X16931Y7087
X17931Y7837
X17931Y6237
X18837Y10574
X18837Y8606
X18837Y4669
X18837Y2700
X18931Y6987
X18931Y6287
X19781Y6987
X19781Y6287
X20805Y10574
X20805Y8606
X20805Y4669
X20805Y2700
X22774Y8606
X22774Y4669
T2
X10931Y4187
X10931Y3187
T3
X4442Y6643
X21431Y6637
T4
X3442Y7643
X3442Y5643
X5442Y7643
X5442Y5643
X20431Y7637
X20431Y5637
X22431Y7637
X22431Y5637
T5
X2620Y11043
X2620Y2232
X23242Y11043
X23242Y2232
T1
X3482Y30453G85X3876Y30453
X3089Y30453
X3089Y26516
X5057Y32422
X5057Y30453
X5057Y26516
X5057Y24548
X5931Y28835
X5931Y28135
X6931Y28835
X6931Y28135
X7026Y32422
X7026Y30453
X7026Y26516
X7026Y24548
X7531Y28885
X7931Y29735
X7931Y28085
X8331Y28885
X8931Y29635
X8931Y28935
X8994Y32422
X8994Y30453
X8994Y28485
X8994Y26516
X8994Y24548
X10031Y30685
X10031Y30085
X10031Y28485
X10031Y27885
X10581Y30685
X10581Y27885
X10963Y32422
X11131Y30685
X11131Y30085
X11131Y28485
X11131Y27885
X11931Y29635
X11931Y28935
X12931Y32422
X12931Y30453
X12931Y29635
X12931Y28935
X12931Y28485
X12931Y26516
X12931Y24548
X13931Y29635
X13931Y28935
X14900Y32422
X14900Y30453
X14900Y26516
X14900Y24548
X14931Y29635
X14931Y28935
X15931Y29635
X15931Y28935
X16868Y32422
X16868Y30453
X16868Y28485
X16868Y26516
X16868Y24548
X16931Y29635
X16931Y28935
X17931Y29685
X17931Y28085
X18837Y32422
X18837Y30453
X18837Y26516
X18837Y24548
X18931Y28835
X18931Y28135
X19781Y28835
X19781Y28135
X20805Y32422
X20805Y30453
X20805Y26516
X20805Y24548
X22774Y30453
X22774Y26516
T2
X10931Y26035
X10931Y25035
T3
X4442Y28490
X21431Y28485
T4
X3442Y29490
X3442Y27490
X5442Y29490
X5442Y27490
X20431Y29485
X20431Y27485
X22431Y29485
X22431Y27485
T5
X2620Y32890
X2620Y24079
X23242Y32890
X23242Y24079
T1
X26217Y19530G85X26611Y19530
X25823Y19530
X25823Y15593
X27792Y21498
X27792Y19530
X27792Y15593
X27792Y13624
X28666Y17911
X28666Y17211
X29666Y17911
X29666Y17211
X29760Y21498
X29760Y19530
X29760Y15593
X29760Y13624
X30266Y17961
X30666Y18811
X30666Y17161
X31066Y17961
X31666Y18711
X31666Y18011
X31729Y21498
X31729Y19530
X31729Y17561
X31729Y15593
X31729Y13624
X32766Y19761
X32766Y19161
X32766Y17561
X32766Y16961
X33316Y19761
X33316Y16961
X33697Y21498
X33866Y19761
X33866Y19161
X33866Y17561
X33866Y16961
X34666Y18711
X34666Y18011
X35666Y21498
X35666Y19530
X35666Y18711
X35666Y18011
X35666Y17561
X35666Y15593
X35666Y13624
X36666Y18711
X36666Y18011
X37634Y21498
X37634Y19530
X37634Y15593
X37634Y13624
X37666Y18711
X37666Y18011
X38666Y18711
X38666Y18011
X39603Y21498
X39603Y19530
X39603Y17561
X39603Y15593
X39603Y13624
X39666Y18711
X39666Y18011
X40666Y18761
X40666Y17161
X41571Y21498
X41571Y19530
X41571Y15593
X41571Y13624
X41666Y17911
X41666Y17211
X42516Y17911
X42516Y17211
X43540Y21498
X43540Y19530
X43540Y15593
X43540Y13624
X45508Y19530
X45508Y15593
T2
X33666Y15111
X33666Y14111
T3
X27177Y17567
X44166Y17561
T4
X26177Y18567
X26177Y16567
X28177Y18567
X28177Y16567
X43166Y18561
X43166Y16561
X45166Y18561
X45166Y16561
T5
X25355Y21967
X25355Y13156
X45977Y21967
X45977Y13156
T1
X26217Y30847G85X26611Y30847
X25823Y30847
X25823Y26910
X27792Y32815
X27792Y30847
X27792Y26910
X27792Y24941
X28666Y29228
X28666Y28528
X29666Y29228
X29666Y28528
X29760Y32815
X29760Y30847
X29760Y26910
X29760Y24941
X30266Y29278
X30666Y30128
X30666Y28478
X31066Y29278
X31666Y30028
X31666Y29328
X31729Y32815
X31729Y30847
X31729Y28878
X31729Y26910
X31729Y24941
X32766Y31078
X32766Y30478
X32766Y28878
X32766Y28278
X33316Y31078
X33316Y28278
X33697Y32815
X33866Y31078
X33866Y30478
X33866Y28878
X33866Y28278
X34666Y30028
X34666Y29328
X35666Y32815
X35666Y30847
X35666Y30028
X35666Y29328
X35666Y28878
X35666Y26910
X35666Y24941
X36666Y30028
X36666Y29328
X37634Y32815
X37634Y30847
X37634Y26910
X37634Y24941
X37666Y30028
X37666Y29328
X38666Y30028
X38666Y29328
X39603Y32815
X39603Y30847
X39603Y28878
X39603Y26910
X39603Y24941
X39666Y30028
X39666Y29328
X40666Y30078
X40666Y28478
X41571Y32815
X41571Y30847
X41571Y26910
X41571Y24941
X41666Y29228
X41666Y28528
X42516Y29228
X42516Y28528
X43540Y32815
X43540Y30847
X43540Y26910
X43540Y24941
X45508Y30847
X45508Y26910
T2
X33666Y26428
X33666Y25428
T3
X27177Y28884
X44166Y28878
T4
X26177Y29884
X26177Y27884
X28177Y29884
X28177Y27884
X43166Y29878
X43166Y27878
X45166Y29878
X45166Y27878
T5
X25355Y33284
X25355Y24473
X45977Y33284
X45977Y24473
M30
